P2
3 3
10
10 5 0
8 3 0
5 0 0